<svg id="Layer_1" data-name="Layer 1" xmlns="http://www.w3.org/2000/svg" viewBox="0 0 458.33 430.71"><defs><style>.cls-1,.cls-4,.cls-6{fill:#fff;}.cls-1{stroke:#fff;}.cls-1,.cls-3,.cls-6,.cls-7{stroke-miterlimit:10;}.cls-2,.cls-7{fill:#025ba8;}.cls-3,.cls-5{fill:none;}.cls-3,.cls-6,.cls-7{stroke:#025ba8;}</style></defs><title>DQe-c_logo_more_drip</title><rect class="cls-1" x="0.5" y="0.5" width="457.33" height="429.71"/><path class="cls-2" d="M375.94,215.1a5,5,0,0,1-5-5V97.59a5,5,0,0,0-5-5H246.53a5,5,0,0,0-5,5V210.1a5,5,0,0,1-5,5H124a5,5,0,0,0-5,5V339.51a5,5,0,0,0,5,5H236.53a5,5,0,0,1,5,5V462a5,5,0,0,0,5,5h32.72c2.75,0,4.75-1.85,4.45-4.11s-.14-4.1.37-4.1,2.18,1.86,3.72,4.13c0,0,2,2.91,7.46,2.91,9.19,0,11.76-8.18,11.76-16.58,0-8.66-2.93-16.16-11.62-16.16a9.77,9.77,0,0,0-8.62,4.56c-1.29,2.42-3.14,4.41-4.1,4.41s-2.05-2.23-2.41-5l-.12-.89c-.36-2.73.27-5,1.4-5s2.07-2.25,2.07-5V404.61c0-2.75-1-5-2.14-5a5.84,5.84,0,0,0-3.29,1c-.62.56-2.85-.44-3.21-3.17l-2.41-18c-.36-2.73-.71-5-.77-5a2.35,2.35,0,0,1-.23-1.26c0-.71.05-.93.11-.5s1,.79,2,.79a10.61,10.61,0,0,0,2.83-.34l.4-.18.23-.11c.23-.12.41,2,.41,4.79v14.62c0,2.75,1.36,5,3,5s3-2.25,3-5V370.61c0-2.75-1-5-2.14-5a5.45,5.45,0,0,0-3,.79,11.07,11.07,0,0,1-4.68,1.46c-1.52,0-1.27-1,.55-2.3a13.42,13.42,0,0,1,6.29-2.29c1.64,0,3-.94,3-2.08a5,5,0,0,1,2-3.49c1.12-.77,2,.85,2,3.6v13.06c0,2.75.59,5,1.31,5a1.28,1.28,0,0,1,1.24,1.41v.71c0,8.55,2.71,16.37,11.76,16.37,7.84,0,10.2-8.12,10.2-8.12.76-2.64,1.74-4.93,2.16-5.09s1.32,1.65,1.32,4.4v14.62c0,2.75.79,5,1.75,5s1.41,2,1,4.45v2.37c0,8.55,2.7,16.37,11.75,16.37s11.77-8.18,11.77-16.58c0-8.66-2.93-16.16-11.62-16.16-3.92,0-4.76.72-4.76.72-2.1,1.78-3.81,1-3.81-1.76V382c0-2.75-1-5-2.15-5a5.85,5.85,0,0,0-3.3,1c-.63.56-3-.42-3.58-3.11l-4.18-6.33c-2.11-1.77-3.84-4.51-3.84-6.11s1.66-1.37,3.68.5c0,0,1,.89,5.14.89,9.18,0,11.76-8.18,11.76-16.58a21.28,21.28,0,0,0-.47-5.36c-.79-2.63-.25-5.11,1.2-5.49l1.12-.48.34-.14c.32-.17.58,1.95.58,4.7v14.63c0,2.75,1.36,5,3,5s3-2.25,3-5V334.51c0-2.75.87-4.85,1.93-4.66h1.09c4.75,0,6.22-1.69,6.22-1.69,1.81-2.07,3.59-2.58,4-1.12s2.06,4.57,1.95,4.57a22.15,22.15,0,0,0-2.7,1.87c-1.36,1-5.29,3.49-5.29,4.74A1.75,1.75,0,0,0,343.5,340a3.54,3.54,0,0,1,3.75,3.67v14.62c0,2.75,1.36,5,3,5s3-1.65,3-3.67.82-3.89,1.82-4.16,3,1.1,3,3.85v6.26c0,2.75-1.49,3.31-3.3,1.25,0,0-1.49-1.69-6.12-1.69-8.92,0-11.9,7.9-11.9,16.37s2.7,16.37,11.75,16.37,11.77-8.18,11.77-16.58v-.79a1.7,1.7,0,0,1,1.89-1.56c1.08,0,2-2.25,2-5V352.26c0-2.75-1-5-2.14-5a8.1,8.1,0,0,0-4.21,1.63c-1.15.9-4.54.14-4.54-2.61v-6.66c0-2.75,1.29-4.61,2.86-4.14H358c6.24,0,8.53-4.4,8.53-4.4a4.19,4.19,0,0,1,6.35-1.48s.35.25,3.91.25h1.52c1.39-.35,2.53-.32,2.55.07s-1.58,2.9-3.62,4.74c0,0-5.77,5.16-5.77,12.82,0,8.55,2.7,16.37,11.75,16.37S395,355.67,395,347.27v-1.11a3,3,0,0,1,1.88-2.84c1.12-.39,3.12-.27,2.77,2v2.18c0,8.55,2.7,16.37,11.75,16.37s11.77-8.18,11.77-16.58c0-8.66-2.93-16.16-11.62-16.16-3.46,0-3.79.24-3.79.24-2.25,1.59-4,2.16-3.81,1.26s.52-3.34.72-3.34.38-2.25.38-5V300.81c0-2.75.32-5,.7-5h2.51c1.79-.68,3.54,0,3.89,1.52s1.31,6.89.37,9.48a21.25,21.25,0,0,0-.87,6.63c0,8.55,2.7,16.37,11.75,16.37s11.77-8.18,11.77-16.58A21.11,21.11,0,0,0,434,306a12.52,12.52,0,0,1-.16-8.46l.38-2.24,0-.15c0-.16,0-2.55,0-5.3V271.35c0-2.75,1.24-4.34,2.76-3.54s2.75,2.19,2.75,3.07,1.22,1.37,2.71,1.08l1.4-.49.72-.26c.64-.31,1.16,1.69,1.16,4.44v14.62c0,2.75,1.37,5,3,5s3-2.25,3-5V280.7c0-2.75,1.49-4.21,3.3-3.24a32.82,32.82,0,0,1,3.3,1.89c0,.07.3,2.36.67,5.08l3.65,7c1.82,2.06,2.29,4.45,1,5.3s-4.74,2.31-4.74,2.61-1.88-.7-4.18-2.21c0,0,0,0-3.27,0-8.91,0-11.89,7.9-11.89,16.37s2.7,16.37,11.75,16.37,11.77-8.18,11.77-16.58a21,21,0,0,0-.53-5.58c-.81-2.63-.83-5,0-5.22s2.39,1.28,2.39,4v14.63c0,2.75,1.36,5,3,5s3-2.25,3-5V300.82c0-2.75,1.55-5.52,3.43-6.17s7.08-3.09,9.5-1.8l4.94,2.62c2.42,1.29,4.41.1,4.41-2.65V220.1a5,5,0,0,0-5-5ZM295.4,437.94c4.56,0,5.41,5.25,5.41,11.37,0,6.33-.71,11.71-5.5,11.71s-5.63-5.72-5.63-11.59C289.68,442.55,290.86,437.94,295.4,437.94Zm-18.25-31.09c.22-.11.4,2,.4,4.8v.15c0,2.75-.29,2.85-.64.21S276.93,407,277.15,406.85Zm53.15-2.91c4.56,0,5.4,5.25,5.4,11.37,0,6.33-.71,11.71-5.49,11.71s-5.63-5.72-5.63-11.59C324.58,408.55,325.76,403.94,330.3,403.94Zm-35.13-49.69c0-1.74,1.48-4.2,3.29-5.46s3.28-2,3.27-1.64v2.57c.35,2.31.18,4.2-.36,4.2a5.7,5.7,0,0,0-2.61,1.34C297.87,356,295.17,356,295.17,354.25Zm0,10.58c0-1.42.58-2.75,1.29-3s2.15.15,2.15,1.42-.56,2.54-1.23,2.82S295.17,366.24,295.17,364.83Zm11.73,11.94a24.77,24.77,0,0,1,.63,4.54c.21,4.49-.83,9.75-3.1,11.11a5.07,5.07,0,0,1-4.69.05c-2.3-1.28-3.62-6.45-3.34-11a22.09,22.09,0,0,1,1.26-5c1-2.57,2.57-4.83,3.52-5s4.3,1.22,5.29,3.57ZM313.55,359c-4.84,0-5.63-5.72-5.63-11.59a33.21,33.21,0,0,1,.38-5.47c.62-3.74.84-3.85.84-3.85,2.47-1.19,4.52-2.17,4.55-2.17l1.71.24.63.41c2.49,1.58,3,5.87,3,10.72C319.05,353.64,318.34,359,313.55,359Zm28.87-40.76c-.47,3.95-1.79,6.76-5.25,6.76a4.39,4.39,0,0,1-3-1c-2.2-1.92-2.64-6.19-2.64-10.55,0-6.88,1.18-11.49,5.72-11.49s5.4,5.25,5.4,11.37A42.64,42.64,0,0,1,342.42,318.26ZM348.64,393c-4.84,0-5.63-5.72-5.63-11.59,0-6.88,1.18-11.49,5.72-11.49s5.4,5.25,5.4,11.37C354.13,387.64,353.42,393,348.64,393Zm39.57-104.61a10.37,10.37,0,0,1,3.5-4.39c1.49-1,3-.07,3.4,2.13s.8,6.55-1.95,6.55h-2.4C388,292.7,387.77,289.8,388.21,288.41ZM379,296.54a1,1,0,0,1,.89-.85c.5-.06,1.69.25,1.69,1s-.37,1.21-.82,1S379,296.94,379,296.54ZM358,330.66c-4.84,0-5.63-5.72-5.63-11.6,0-3.63.33-6.63,1.31-8.65l.83-1.72c1.79-.61,3.35-1.11,3.47-1.12h.11c4.56,0,5.4,5.26,5.4,11.37C363.52,325.27,362.81,330.66,358,330.66Zm9.47-28c-.85,1.82-1.92,3-2.39,2.52s-.08-2.59,2.18-4.16l1-.67a28.74,28.74,0,0,1,4.11-2.61C372.36,297.83,368.35,300.81,367.5,302.62Zm9.32,22.4c-4.85,0-5.64-5.72-5.64-11.59,0-6.88,1.18-11.49,5.73-11.49s5.4,5.25,5.4,11.37v2.59c-.32,2.41-.59,4.39-.59,4.39l-.06.26c0,.12-.13.44-.13.44s-1,1.84-2.14,4Zm6.43,34c-4.84,0-5.64-5.72-5.64-11.59,0-6.08.92-10.38,4.27-11.3a5.16,5.16,0,0,1,1.46-.19c3.6,0,4.88,3.27,5.26,7.67.1,1.16.14,2.41.14,3.7C388.74,353.64,388,359,383.25,359Zm13.54-23.86c-1.61,2.23-3.66,2.62-4.56.86s-5.2-5.51-5.29-6.92v-3.9c.34-2.24.62-4.08.63-4.09l.06-.26c0-.12,1.16-2.3,2.43-4.56h2.61c4.56,0,5.4,5.25,5.4,11.36C398.07,333.37,396.79,335.16,396.79,335.16Zm2.15-26.2c0,2.38-1.67,3.5-3.71,2.5h-4.14c-1.42.38-2.8-1.08-3.07-3.26s-.34-6.7,2.1-6.7a17.5,17.5,0,0,1,3.89.17,3.47,3.47,0,0,0-1.07,2.55,1.75,1.75,0,0,0,2.25,1.76C396.43,305.71,398.94,306.59,398.94,309Zm12.57,27c4.56,0,5.4,5.25,5.4,11.37,0,6.33-.71,11.71-5.49,11.71s-5.63-5.72-5.63-11.59C405.79,340.55,407,335.94,411.51,335.94ZM406.14,291c-4.84,0-5.63-5.72-5.63-11.59,0-.53,0-1,0-1.54.18-6,1.51-9.95,5.7-9.95a4.39,4.39,0,0,1,4.27,3c.89,2.1,1.13,5.1,1.13,8.34C411.63,285.64,410.92,291,406.14,291Zm17.28,34c-4.84,0-5.63-5.72-5.63-11.59v-3.14c.52-2.55,2.12-4.33,3.56-4h3.52c1.67-.57,3.49,1.17,4,3.87,0,0,0,0,0,3.11C428.92,319.64,428.21,325,423.42,325Zm-6.06-35.11c0-6.87,1.18-11.49,5.73-11.49,3.37,0,4.71,2.88,5.18,6.86a40.07,40.07,0,0,1,.22,4.51,42,42,0,0,1-.22,4.76,15.45,15.45,0,0,1-.66,3.24c-.75,2.27-2.14,3.71-4.62,3.71-2.32,0-3.71-1.32-4.52-3.33A23.06,23.06,0,0,1,417.36,289.91Zm7.68-23a4.22,4.22,0,0,0-2.77,3.34,1.75,1.75,0,0,0,2.25,1.76c1.24-.27,3.75-.41,3.75.72s-1.42,1.53-3.16.89H420.9c-1.84.72-3.6.14-3.91-1.3s0-5.84,2.27-7.41l1.23-.86c2.26-1.57,5.27-2.23,6.68-1.48S426.56,266.28,425,266.88ZM451.6,325c-4.85,0-5.64-5.72-5.64-11.59,0-6.88,1.18-11.49,5.73-11.49s5.4,5.25,5.4,11.37C457.09,319.64,456.38,325,451.6,325Zm23.14-37.16a4.49,4.49,0,0,1-4.42,3.16c-4,0-5.22-3.84-5.54-8.46-.07-1-.1-2.07-.1-3.13,0-6.88,1.19-11.49,5.73-11.49s5.4,5.25,5.4,11.37C475.81,282.64,475.61,285.7,474.74,287.86Z" transform="translate(-105.74 -81.79)"/><path class="cls-2" d="M488.32,329.27c-1.67,0-3-2.25-3-5V309.65c0-2.75-1-4.63-2.18-4.18s-3.81,0-3.81-1.25,1.31-2.79,2.92-3.43,5.81-3.18,7-3.18,2.14,2.25,2.14,5v21.66C491.35,327,490,329.27,488.32,329.27Z" transform="translate(-105.74 -81.79)"/><path class="cls-2" d="M521.47,313.27c0,8.4-2.58,16.58-11.76,16.58S498,322,498,313.48s3-16.37,11.9-16.37C518.54,297.11,521.47,304.61,521.47,313.27Zm-17.33.16c0,5.87.79,11.59,5.63,11.59s5.5-5.38,5.5-11.71c0-6.12-.85-11.37-5.41-11.37S504.14,306.55,504.14,313.43Z" transform="translate(-105.74 -81.79)"/><path class="cls-2" d="M436.58,363.27c-1.67,0-3-2.25-3-5V343.65c0-2.75-1-4.63-2.18-4.18s-3.82,0-3.82-1.25,1.32-2.79,2.92-3.43,5.82-3.18,7-3.18,2.14,2.25,2.14,5v21.66C439.61,361,438.25,363.27,436.58,363.27Z" transform="translate(-105.74 -81.79)"/><path class="cls-2" d="M504.87,347.27c0,8.4-2.58,16.58-11.77,16.58s-11.76-7.82-11.76-16.37,3-16.37,11.9-16.37C501.94,331.11,504.87,338.61,504.87,347.27Zm-17.34.16c0,5.87.79,11.59,5.63,11.59s5.5-5.38,5.5-11.71c0-6.12-.85-11.37-5.41-11.37S487.53,340.55,487.53,347.43Z" transform="translate(-105.74 -81.79)"/><path class="cls-2" d="M271.84,374c0-.26-.12-.84-.17-1.27s-.11-.21-.11.5a3.7,3.7,0,0,0,.11,1.27C271.73,374.47,271.87,374.23,271.84,374Z" transform="translate(-105.74 -81.79)"/><path class="cls-2" d="M327.19,397.27c-1.67,0-3-2.25-3-5V377.65c0-2.75-1-4.63-2.18-4.18s-3.82,0-3.82-1.25,1.32-2.79,2.92-3.43,5.82-3.18,7-3.18,2.14,2.25,2.14,5v21.66C330.22,395,328.86,397.27,327.19,397.27Z" transform="translate(-105.74 -81.79)"/><path class="cls-2" d="M385.37,397.27c-1.67,0-3-2.25-3-5V377.65c0-2.75-1-4.63-2.17-4.18s-3.82,0-3.82-1.25,1.31-2.79,2.92-3.43,5.82-3.18,7-3.18,2.15,2.25,2.15,5v21.66C388.4,395,387,397.27,385.37,397.27Z" transform="translate(-105.74 -81.79)"/><path class="cls-2" d="M430,381.27c0,8.4-2.58,16.58-11.77,16.58s-11.76-7.82-11.76-16.37,3-16.37,11.9-16.37C427.11,365.11,430,372.61,430,381.27Zm-17.34.16c0,5.87.79,11.59,5.64,11.59s5.49-5.38,5.49-11.71c0-6.12-.84-11.37-5.4-11.37S412.7,374.55,412.7,381.43Z" transform="translate(-105.74 -81.79)"/><path class="cls-2" d="M458.21,381.27c0,8.4-2.58,16.58-11.77,16.58s-11.75-7.82-11.75-16.37,3-16.37,11.9-16.37C455.28,365.11,458.21,372.61,458.21,381.27Zm-17.33.16c0,5.87.79,11.59,5.63,11.59s5.49-5.38,5.49-11.71c0-6.12-.84-11.37-5.4-11.37S440.88,374.55,440.88,381.43Z" transform="translate(-105.74 -81.79)"/><path class="cls-2" d="M521.47,381.27c0,8.4-2.57,16.58-11.76,16.58S498,390,498,381.48s3-16.37,11.9-16.37C518.54,365.11,521.47,372.61,521.47,381.27Zm-17.33.16c0,5.87.79,11.59,5.63,11.59s5.5-5.38,5.5-11.71c0-6.12-.85-11.37-5.41-11.37S504.14,374.55,504.14,381.43Z" transform="translate(-105.74 -81.79)"/><path class="cls-2" d="M534.93,397.27c-1.67,0-3-2.25-3-5V377.65c0-2.75-1-4.63-2.18-4.18s-3.82,0-3.82-1.25,1.32-2.79,2.92-3.43,5.82-3.18,7-3.18,2.14,2.25,2.14,5v21.66C538,395,536.6,397.27,534.93,397.27Z" transform="translate(-105.74 -81.79)"/><path class="cls-2" d="M313.74,415.27c0,8.4-2.58,16.58-11.77,16.58s-11.76-7.82-11.76-16.37,3-16.37,11.9-16.37C310.8,399.11,313.74,406.61,313.74,415.27Zm-17.34.16c0,5.87.79,11.59,5.63,11.59s5.5-5.38,5.5-11.71c0-6.12-.85-11.37-5.4-11.37S296.4,408.55,296.4,415.43Z" transform="translate(-105.74 -81.79)"/><path class="cls-2" d="M355.36,431.27c-1.66,0-3-2.25-3-5V411.65c0-2.75-1-4.63-2.18-4.18s-3.81,0-3.81-1.25,1.31-2.79,2.92-3.43,5.81-3.18,7-3.18,2.15,2.25,2.15,5v21.66C358.4,429,357,431.27,355.36,431.27Z" transform="translate(-105.74 -81.79)"/><path class="cls-2" d="M423.65,415.27c0,8.4-2.58,16.58-11.77,16.58s-11.75-7.82-11.75-16.37,3-16.37,11.9-16.37C420.72,399.11,423.65,406.61,423.65,415.27Zm-17.33.16c0,5.87.79,11.59,5.63,11.59s5.5-5.38,5.5-11.71c0-6.12-.85-11.37-5.41-11.37S406.32,408.55,406.32,415.43Z" transform="translate(-105.74 -81.79)"/><path class="cls-2" d="M437.11,431.27c-1.67,0-3-2.25-3-5V411.65c0-2.75-1-4.63-2.18-4.18s-3.82,0-3.82-1.25,1.32-2.79,2.92-3.43,5.82-3.18,7-3.18,2.14,2.25,2.14,5v21.66C440.14,429,438.77,431.27,437.11,431.27Z" transform="translate(-105.74 -81.79)"/><path class="cls-2" d="M470.26,415.27c0,8.4-2.58,16.58-11.77,16.58s-11.75-7.82-11.75-16.37,3-16.37,11.9-16.37C467.33,399.11,470.26,406.61,470.26,415.27Zm-17.33.16c0,5.87.79,11.59,5.63,11.59s5.49-5.38,5.49-11.71c0-6.12-.84-11.37-5.4-11.37S452.93,408.55,452.93,415.43Z" transform="translate(-105.74 -81.79)"/><path class="cls-2" d="M483.71,431.27c-1.66,0-3-2.25-3-5V411.65c0-2.75-1-4.63-2.18-4.18s-3.81,0-3.81-1.25,1.31-2.79,2.92-3.43,5.81-3.18,7-3.18,2.15,2.25,2.15,5v21.66C486.75,429,485.38,431.27,483.71,431.27Z" transform="translate(-105.74 -81.79)"/><path class="cls-2" d="M335.19,449.27c0,8.4-2.58,16.58-11.77,16.58s-11.75-7.82-11.75-16.37,3-16.37,11.9-16.37C332.26,433.11,335.19,440.61,335.19,449.27Zm-17.33.16c0,5.87.79,11.59,5.63,11.59s5.49-5.38,5.49-11.71c0-6.12-.84-11.37-5.4-11.37S317.86,442.55,317.86,449.43Z" transform="translate(-105.74 -81.79)"/><path class="cls-2" d="M348.65,465.27c-1.67,0-3-2.25-3-5V445.65c0-2.75-1-4.63-2.18-4.18s-3.81,0-3.81-1.25,1.31-2.79,2.92-3.43,5.82-3.17,7-3.17,2.15,2.25,2.15,5v21.65C351.68,463,350.31,465.27,348.65,465.27Z" transform="translate(-105.74 -81.79)"/><path class="cls-2" d="M393.32,449.27c0,8.4-2.58,16.58-11.77,16.58s-11.76-7.82-11.76-16.37,3-16.37,11.9-16.37C390.39,433.11,393.32,440.61,393.32,449.27Zm-17.34.16c0,5.87.79,11.59,5.64,11.59s5.49-5.38,5.49-11.71c0-6.12-.84-11.37-5.4-11.37S376,442.55,376,449.43Z" transform="translate(-105.74 -81.79)"/><path class="cls-2" d="M418.34,465.27c-1.67,0-3-2.25-3-5V445.65c0-2.75-1-4.63-2.18-4.18s-3.82,0-3.82-1.25,1.32-2.79,2.92-3.43,5.82-3.17,7-3.17,2.14,2.25,2.14,5v21.65C421.37,463,420,465.27,418.34,465.27Z" transform="translate(-105.74 -81.79)"/><path class="cls-2" d="M435.91,465.27c-1.67,0-3-2.25-3-5V445.65c0-2.75-1-4.63-2.18-4.18s-3.82,0-3.82-1.25,1.32-2.79,2.92-3.43,5.82-3.17,7-3.17,2.14,2.25,2.14,5v21.65C438.94,463,437.57,465.27,435.91,465.27Z" transform="translate(-105.74 -81.79)"/><path class="cls-2" d="M469.06,449.27c0,8.4-2.58,16.58-11.77,16.58s-11.75-7.82-11.75-16.37,3-16.37,11.9-16.37C466.13,433.11,469.06,440.61,469.06,449.27Zm-17.33.16c0,5.87.79,11.59,5.63,11.59s5.49-5.38,5.49-11.71c0-6.12-.84-11.37-5.4-11.37S451.73,442.55,451.73,449.43Z" transform="translate(-105.74 -81.79)"/><path class="cls-2" d="M494.08,465.27c-1.66,0-3-2.25-3-5V445.65c0-2.75-1-4.63-2.18-4.18s-3.81,0-3.81-1.25,1.31-2.79,2.92-3.43,5.81-3.17,7-3.17,2.15,2.25,2.15,5v21.65C497.12,463,495.75,465.27,494.08,465.27Z" transform="translate(-105.74 -81.79)"/><path class="cls-2" d="M524.13,465.27c-1.67,0-3-2.25-3-5V445.65c0-2.75-1-4.63-2.18-4.18s-3.82,0-3.82-1.25,1.32-2.79,2.93-3.43,5.81-3.17,7-3.17,2.14,2.25,2.14,5v21.65C527.16,463,525.8,465.27,524.13,465.27Z" transform="translate(-105.74 -81.79)"/><path class="cls-2" d="M557.28,449.27c0,8.4-2.58,16.58-11.77,16.58s-11.75-7.82-11.75-16.37,3-16.37,11.9-16.37C554.35,433.11,557.28,440.61,557.28,449.27Zm-17.33.16c0,5.87.79,11.59,5.63,11.59s5.49-5.38,5.49-11.71c0-6.12-.84-11.37-5.4-11.37S540,442.55,540,449.43Z" transform="translate(-105.74 -81.79)"/><path class="cls-2" d="M304.2,499.27c-1.67,0-3-2.25-3-5V479.65c0-2.75-1-4.63-2.18-4.18s-3.82,0-3.82-1.25,1.32-2.79,2.92-3.43,5.82-3.17,7-3.17,2.14,2.25,2.14,5v21.65C307.23,497,305.87,499.27,304.2,499.27Z" transform="translate(-105.74 -81.79)"/><path class="cls-2" d="M348.87,483.27c0,8.4-2.58,16.58-11.77,16.58s-11.75-7.82-11.75-16.37,3-16.37,11.9-16.37C345.94,467.11,348.87,474.61,348.87,483.27Zm-17.33.16c0,5.87.79,11.59,5.63,11.59s5.49-5.38,5.49-11.71c0-6.12-.84-11.37-5.4-11.37S331.54,476.55,331.54,483.43Z" transform="translate(-105.74 -81.79)"/><path class="cls-2" d="M377,483.27c0,8.4-2.58,16.58-11.76,16.58s-11.76-7.82-11.76-16.37,3-16.37,11.9-16.37C374.11,467.11,377,474.61,377,483.27Zm-17.33.16c0,5.87.79,11.59,5.63,11.59s5.5-5.38,5.5-11.71c0-6.12-.85-11.37-5.41-11.37S359.71,476.55,359.71,483.43Z" transform="translate(-105.74 -81.79)"/><path class="cls-2" d="M437.49,499.27c-1.67,0-3-2.25-3-5V479.65c0-2.75-1-4.63-2.18-4.18s-3.82,0-3.82-1.25,1.32-2.79,2.93-3.43,5.81-3.17,7-3.17,2.14,2.25,2.14,5v21.65C440.52,497,439.16,499.27,437.49,499.27Z" transform="translate(-105.74 -81.79)"/><path class="cls-2" d="M467.54,499.27c-1.67,0-3-2.25-3-5V479.65c0-2.75-1-4.63-2.18-4.18s-3.82,0-3.82-1.25,1.32-2.79,2.92-3.43,5.82-3.17,7-3.17,2.14,2.25,2.14,5v21.65C470.57,497,469.21,499.27,467.54,499.27Z" transform="translate(-105.74 -81.79)"/><path class="cls-2" d="M295.39,501.11h-1.33c-1.25.28-.65.51,1.34.51s2.58-.23,1.33-.51Z" transform="translate(-105.74 -81.79)"/><path class="cls-2" d="M383.61,501.11h-1.33c-1.25.28-.65.51,1.34.51s2.59-.23,1.33-.51Z" transform="translate(-105.74 -81.79)"/><path class="cls-2" d="M495.16,501.11h-1.33c-1.25.28-.65.51,1.34.51s2.59-.23,1.33-.51Z" transform="translate(-105.74 -81.79)"/><path class="cls-2" d="M546.62,501.11h-1.33c-1.25.28-.65.51,1.33.51s2.59-.23,1.34-.51Z" transform="translate(-105.74 -81.79)"/><path class="cls-3" d="M319.05,347.31c0,6.33-.71,11.71-5.5,11.71s-5.63-5.72-5.63-11.59a33.21,33.21,0,0,1,.38-5.47c.62-3.74,2.15-6,5.34-6a4.3,4.3,0,0,1,2.39.65C318.52,338.17,319.05,342.46,319.05,347.31Z" transform="translate(-105.74 -81.79)"/><path class="cls-4" d="M273.68,373.49c1,0,1.31.18.58.4s-2.39.34-2.42.08S272.63,373.49,273.68,373.49Z" transform="translate(-105.74 -81.79)"/><path class="cls-3" d="M273.68,373.49c1,0,1.31.18.58.4s-2.39.34-2.42.08S272.63,373.49,273.68,373.49Z" transform="translate(-105.74 -81.79)"/><path class="cls-4" d="M271.73,373.18a3.91,3.91,0,0,1,.06,1.28,2.35,2.35,0,0,1-.23-1.26C271.56,372.49,271.64,372.48,271.73,373.18Z" transform="translate(-105.74 -81.79)"/><path class="cls-3" d="M271.73,373.18a3.91,3.91,0,0,1,.06,1.28,2.35,2.35,0,0,1-.23-1.26C271.56,372.49,271.64,372.48,271.73,373.18Z" transform="translate(-105.74 -81.79)"/><path class="cls-3" d="M342.66,313.31a42.64,42.64,0,0,1-.24,4.95c-.47,3.95-1.79,6.76-5.25,6.76a4.39,4.39,0,0,1-3-1c-2.2-1.92-2.64-6.19-2.64-10.55,0-6.88,1.18-11.49,5.72-11.49S342.66,307.19,342.66,313.31Z" transform="translate(-105.74 -81.79)"/><path class="cls-3" d="M411.63,279.31c0,6.33-.71,11.71-5.49,11.71s-5.63-5.72-5.63-11.59c0-.53,0-1,0-1.54.18-6,1.51-9.95,5.7-9.95a4.39,4.39,0,0,1,4.27,3C411.39,273.07,411.63,276.07,411.63,279.31Z" transform="translate(-105.74 -81.79)"/><path class="cls-3" d="M475.81,279.31c0,3.33-.2,6.39-1.07,8.55a4.49,4.49,0,0,1-4.42,3.16c-4,0-5.22-3.84-5.54-8.46-.07-1-.1-2.07-.1-3.13,0-6.88,1.19-11.49,5.73-11.49S475.81,273.19,475.81,279.31Z" transform="translate(-105.74 -81.79)"/><path class="cls-5" d="M383.34,335.94a5.16,5.16,0,0,0-1.46.19c1.13,3.55,3.22,6.33,6.72,7.48C388.22,339.21,386.94,335.94,383.34,335.94Z" transform="translate(-105.74 -81.79)"/><path class="cls-5" d="M423.5,297.11a11.45,11.45,0,0,0-5,1.06c.81,2,2.2,3.33,4.52,3.33,2.48,0,3.87-1.44,4.62-3.71A11.84,11.84,0,0,0,423.5,297.11Z" transform="translate(-105.74 -81.79)"/><polygon class="cls-6" points="165.82 290.12 166.03 291.7 165.82 291.7 165.82 290.12"/><path class="cls-6" d="M276.91,373v.52h-1.33C276.06,373.32,276.51,373.15,276.91,373Z" transform="translate(-105.74 -81.79)"/><path class="cls-1" d="M301.72,369.1" transform="translate(-105.74 -81.79)"/><path class="cls-7" d="M328,335.5v.44h-.92A8.83,8.83,0,0,0,328,335.5Z" transform="translate(-105.74 -81.79)"/><rect class="cls-1" x="119.99" y="419.71" width="331.55" height="2.84"/></svg>